<svg width="960" height="684" viewBox="0 0 960 684" fill="none" xmlns="http://www.w3.org/2000/svg">
<g filter="url(#filter0_f_264_2751)">
<path d="M405 152.896C405 271.914 441.503 583.897 320 583.897C198.497 583.897 100 487.414 100 368.397C100 249.379 198.497 152.897 320 152.897C441.503 152.897 405 33.8791 405 152.896Z" fill="#FE5D26" fill-opacity="0.76"/>
</g>
<g filter="url(#filter1_f_264_2751)">
<path d="M725.999 368.396C725.999 487.414 627.502 583.896 505.999 583.896C384.497 583.896 354 559.414 354 440.396C354 321.379 384.497 152.896 505.999 152.896C627.502 152.896 725.999 249.379 725.999 368.396Z" fill="#7C1DC9" fill-opacity="0.76"/>
</g>
<g filter="url(#filter2_f_264_2751)">
<path d="M760 431.896C760 550.914 881.503 583.896 760 583.896C638.497 583.896 540 487.414 540 368.396C540 249.379 638.497 152.896 760 152.896C881.503 152.896 760 312.879 760 431.896Z" fill="#2AF6FF" fill-opacity="0.75"/>
</g>
<defs>
<filter id="filter0_f_264_2751" x="0" y="0" width="510.142" height="683.896" filterUnits="userSpaceOnUse" color-interpolation-filters="sRGB">
<feFlood flood-opacity="0" result="BackgroundImageFix"/>
<feBlend mode="normal" in="SourceGraphic" in2="BackgroundImageFix" result="shape"/>
<feGaussianBlur stdDeviation="50" result="effect1_foregroundBlur_264_2751"/>
</filter>
<filter id="filter1_f_264_2751" x="254" y="52.8965" width="572" height="631" filterUnits="userSpaceOnUse" color-interpolation-filters="sRGB">
<feFlood flood-opacity="0" result="BackgroundImageFix"/>
<feBlend mode="normal" in="SourceGraphic" in2="BackgroundImageFix" result="shape"/>
<feGaussianBlur stdDeviation="50" result="effect1_foregroundBlur_264_2751"/>
</filter>
<filter id="filter2_f_264_2751" x="440" y="52.8965" width="474.001" height="631" filterUnits="userSpaceOnUse" color-interpolation-filters="sRGB">
<feFlood flood-opacity="0" result="BackgroundImageFix"/>
<feBlend mode="normal" in="SourceGraphic" in2="BackgroundImageFix" result="shape"/>
<feGaussianBlur stdDeviation="50" result="effect1_foregroundBlur_264_2751"/>
</filter>
</defs>
</svg>
