<svg width="32" height="44" viewBox="0 0 32 44" fill="none" xmlns="http://www.w3.org/2000/svg">
<rect x="2" y="9.71289" width="28" height="15.1713" rx="7.58566" stroke="#FE5D26" stroke-width="4"/>
<path d="M5 33.6425C5 33.6152 5.00455 33.6018 5.00823 33.5931C5.01331 33.5811 5.02284 33.5655 5.03831 33.55C5.05377 33.5346 5.06939 33.525 5.08142 33.5199C5.09011 33.5163 5.10351 33.5117 5.13079 33.5117H26.9618C26.971 33.5117 26.9748 33.5126 26.9748 33.5126L26.9751 33.5127C26.9761 33.5131 26.9817 33.5158 26.9888 33.5229C26.9894 33.5235 26.99 33.5241 26.9906 33.5247C21.6942 37.0777 18.2264 38.2255 15.4099 38.1967C12.633 38.1683 9.54393 36.9861 5.00035 33.6538C5.00013 33.6504 5 33.6466 5 33.6425Z" fill="#FE5D26" stroke="#FE5D26" stroke-width="10"/>
<path d="M12.6174 16.4852C12.6174 17.2619 11.7912 18.0651 10.5336 18.0651C9.27594 18.0651 8.44971 17.2619 8.44971 16.4852C8.44971 15.7085 9.27594 14.9053 10.5336 14.9053C11.7912 14.9053 12.6174 15.7085 12.6174 16.4852Z" fill="#FE5D26" stroke="#FE5D26"/>
<path d="M24.3445 16.4852C24.3445 17.2619 23.5182 18.0651 22.2606 18.0651C21.003 18.0651 20.1768 17.2619 20.1768 16.4852C20.1768 15.7085 21.003 14.9053 22.2606 14.9053C23.5182 14.9053 24.3445 15.7085 24.3445 16.4852Z" fill="#FE5D26" stroke="#FE5D26"/>
<path d="M21.0996 4.99976C21.0996 2.23833 18.861 -0.000242233 16.0996 -0.000242233C13.3382 -0.000242233 11.0996 2.23833 11.0996 4.99976H21.0996ZM21.0996 8.79785V4.99976H11.0996V8.79785H21.0996Z" fill="#FE5D26"/>
</svg>
